PathFileType	4	(X/Y/Z)	C:\Users\Basilio\Documents\Thesis Gigler\squatting_fais\c3dfiles\047\SLS_pre_front5\markers_experimental.trc
DataRate	CameraRate	NumFrames	NumMarkers	Units	OrigDataRate	OrigDataStartFrame	OrigNumFrames
200.000000	200.000000	4	60	mm	200.000000	0	1183
Frame#	Time	FHD			LBHD			RBHD			C7			T10			CLAV			LSHO			LUUPA			LMUPA			LDUPA			LLEP			LMEP			LRAD			LUL			LRFIN			RSHO			RUPA1			RMUPA			RDUPA			RLEP			RMEP			RRAD			RUL			RUFIN			LASI			RASI			USACR			LSACR			RSACR			LTHI1			LTHI2			LTHI3			LTHI4			LLFC			LMFC			LTIB1			LTIB2			LTIB3			LTIB4			LLMAL			LMMAL			LMT1			LMT2			LMT5			RTHI			RTHI2			RTHI3			RTHI4			RLFC			RMFC			RTIB1			RTIB2			RTIB3			RTIB4			RLMAL			RMMAL			RHEE			RMT1			RMT2			RMT5			
		X1	Y1	Z1	X2	Y2	Z2	X3	Y3	Z3	X4	Y4	Z4	X5	Y5	Z5	X6	Y6	Z6	X7	Y7	Z7	X8	Y8	Z8	X9	Y9	Z9	X10	Y10	Z10	X11	Y11	Z11	X12	Y12	Z12	X13	Y13	Z13	X14	Y14	Z14	X15	Y15	Z15	X16	Y16	Z16	X17	Y17	Z17	X18	Y18	Z18	X19	Y19	Z19	X20	Y20	Z20	X21	Y21	Z21	X22	Y22	Z22	X23	Y23	Z23	X24	Y24	Z24	X25	Y25	Z25	X26	Y26	Z26	X27	Y27	Z27	X28	Y28	Z28	X29	Y29	Z29	X30	Y30	Z30	X31	Y31	Z31	X32	Y32	Z32	X33	Y33	Z33	X34	Y34	Z34	X35	Y35	Z35	X36	Y36	Z36	X37	Y37	Z37	X38	Y38	Z38	X39	Y39	Z39	X40	Y40	Z40	X41	Y41	Z41	X42	Y42	Z42	X43	Y43	Z43	X44	Y44	Z44	X45	Y45	Z45	X46	Y46	Z46	X47	Y47	Z47	X48	Y48	Z48	X49	Y49	Z49	X50	Y50	Z50	X51	Y51	Z51	X52	Y52	Z52	X53	Y53	Z53	X54	Y54	Z54	X55	Y55	Z55	X56	Y56	Z56	X57	Y57	Z57	X58	Y58	Z58	X59	Y59	Z59	X60	Y60	Z60	

1	0	-177.851058959961	1637.070190429688	-1059.385375976563	-356.7987670898438	1609.7783203125	-1089.369262695313	-336.6502685546876	1610.568115234375	-942.2664184570315	-398.954803466797	1434.773803710938	-1015.165161132813	-442.1918334960939	1126.98828125	-998.6296386718752	-250.5953369140626	1371.632202148438	-1046.406372070313	-336.1280822753907	1412.47314453125	-1183.882934570313	-263.1199035644532	1341.731689453125	-1323.520629882813	-235.4110260009766	1383.270385742188	-1321.202880859375	-202.4580841064454	1348.640625	-1357.05615234375	-144.5195465087891	1368.5625	-1383.097778320313	-110.8534164428711	1308.631591796875	-1340.546875	127.7650833129883	1378.430908203125	-1410.854370117188	98.05912017822268	1391.9521484375	-1483.861206054688	197.2595367431641	1404.876098632813	-1445.983154296875	-286.4778442382813	1423.937133789063	-896.1883544921877	-153.8897857666016	1361.593872070313	-789.3592529296877	-127.9085998535157	1397.117553710938	-812.4800415039065	-83.5657424926758	1362.387817382813	-790.6318969726565	-17.09081077575684	1378.002075195313	-800.0859375000002	-8.571740150451662	1309.552368164063	-845.1049804687502	238.1170043945313	1375.931518554688	-874.7266845703127	240.2062072753907	1397.232788085938	-806.211608886719	321.5006713867188	1398.509765625	-873.7100830078127	-287.4445495605469	895.522888183594	-1095.514404296875	-276.6337280273438	923.943298339844	-867.818054199219	-465.3806457519532	983.2045898437502	-984.7829589843752	-472.6360778808595	950.6629028320315	-1010.948974609375	-468.7671508789064	954.4719848632815	-952.8590087890627	-318.1189880371094	740.8632812500001	-1168.247314453125	-249.7250061035157	691.0764770507814	-1172.901000976563	-208.9774475097657	715.8783569335939	-1162.300537109375	-248.0343170166016	630.3217773437501	-1173.165283203125	-187.2887268066407	474.9952087402345	-1141.38427734375	-145.9913940429688	480.016082763672	-1021.678955078125	-195.2677307128907	308.5690917968751	-1026.607055664063	-219.3362426757813	258.7666625976563	-1094.3896484375	-204.1597747802735	255.7613830566407	-1049.099243164063	-246.0975646972657	195.1046905517579	-1012.810607910156	-328.0763244628907	116.1749801635742	-1051.770751953125	-303.9541320800782	137.6061248779297	-965.1057128906252	-191.019760131836	61.66798782348634	-978.018493652344	-189.496322631836	58.61621856689455	-1022.378601074219	-237.2055816650391	44.76697158813477	-1068.523681640625	-267.4833068847657	765.2084350585939	-770.403015136719	-201.5808715820313	755.2902221679689	-776.8498535156252	-181.9566497802735	777.7963867187502	-790.7573242187502	-163.254867553711	680.7275390625001	-783.689392089844	-55.66976928710939	583.7892456054689	-810.8901977539065	-47.1008644104004	583.0006713867189	-934.936706542969	45.52248764038087	499.9230957031251	-837.1451416015627	47.80773925781251	400.9325256347657	-789.712829589844	80.19166564941408	423.3014221191407	-813.0137329101565	110.2630844116211	387.232635498047	-848.7276611328127	145.7579193115235	232.1505889892579	-811.1199340820315	148.5543823242188	248.0804901123047	-901.8125610351565	105.6048736572266	170.6538696289063	-853.2565917968752	298.3050231933594	243.1576385498047	-904.8447875976565	303.6489562988282	255.0978546142579	-860.7625122070315	279.9451599121094	218.0168914794922	-797.501892089844	
2	0.005	-177.4373016357422	1636.34521484375	-1059.422119140625	-356.1932983398438	1609.211669921875	-1089.53173828125	-336.2463684082032	1610.018432617188	-941.8653564453127	-398.8896484375001	1434.29443359375	-1015.146789550781	-442.609832763672	1126.597778320313	-998.7166137695315	-250.4739227294922	1370.94384765625	-1046.39404296875	-335.7595825195313	1411.75537109375	-1184.025390625	-263.0252075195313	1340.918212890625	-1323.573120117188	-235.1743469238282	1382.550048828125	-1321.213134765625	-202.2271423339844	1347.770141601563	-1357.040649414063	-144.475082397461	1367.737426757813	-1383.086791992188	-110.9193191528321	1307.548095703125	-1340.660522460938	124.8974609375	1375.959594726563	-1411.12646484375	98.32246398925784	1390.598754882813	-1483.953979492188	197.3552398681641	1403.187133789063	-1446.053588867188	-286.3362426757813	1423.3916015625	-896.2138671875002	-153.7747955322266	1361.083862304688	-789.2933349609377	-127.4231796264649	1396.232177734375	-812.7286376953127	-83.37649536132814	1361.508422851563	-790.702819824219	-16.90549087524414	1377.045532226563	-800.2527465820315	-8.340873718261721	1308.635131835938	-845.4697265625002	238.2868041992188	1374.482666015625	-875.089050292969	240.4445190429688	1395.713134765625	-806.4567871093752	321.6906127929688	1397.322998046875	-874.0090332031252	-287.9924316406251	894.882019042969	-1095.260986328125	-276.9840698242188	923.4375610351565	-867.6643676757815	-465.7295837402345	982.732604980469	-984.788269042969	-473.0055541992189	950.1951904296877	-1010.886474609375	-469.1175231933595	954.0503540039065	-952.7888183593752	-318.3751525878907	740.5452270507814	-1168.158569335938	-250.3090362548829	691.3984375000001	-1172.657958984375	-208.7733764648438	715.6190795898439	-1162.784423828125	-248.0156860351563	630.1910400390626	-1173.059448242188	-187.0707397460938	474.8954467773439	-1141.366821289063	-145.9491882324219	479.8723754882814	-1021.628662109375	-195.0340728759766	308.7264709472657	-1026.849853515625	-219.3155670166016	258.6729736328126	-1094.39501953125	-204.0797271728516	255.7144012451172	-1049.119873046875	-246.0347290039063	195.0653686523438	-1012.78076171875	-328.0555114746094	116.1478805541992	-1051.782592773438	-303.9132690429688	137.6212768554688	-965.1509399414065	-191.0189666748047	61.66905975341798	-978.047546386719	-189.3930969238282	58.65453338623048	-1022.413024902344	-237.2161407470704	44.6772804260254	-1068.527587890625	-267.9782104492188	764.8081054687501	-770.296813964844	-201.8837127685547	754.7108764648439	-776.8699340820315	-182.3409118652344	777.1572875976565	-790.7137451171877	-163.5688171386719	680.5222167968751	-783.7783203125002	-56.53840255737306	583.1130981445314	-810.442565917969	-47.48722457885743	582.0814208984376	-934.7874755859377	44.88955688476563	498.9447631835939	-836.5767211914065	46.97070312500001	399.9671325683595	-788.8897705078127	79.84738159179689	422.7561035156251	-813.2539062500002	109.5817413330078	386.4953613281251	-848.3925781250002	144.9419555664063	231.1601867675782	-810.8441162109377	148.2279357910157	248.0126495361329	-901.3415527343752	105.5897903442383	169.4653625488282	-853.425231933594	297.5979614257813	242.2016143798829	-904.297302246094	302.8910522460938	254.1795654296876	-860.213317871094	279.4493103027344	217.4786529541016	-797.3748168945315	
3	0.01	-176.8918914794922	1636.05712890625	-1059.602416992188	-355.5707702636719	1608.641235351563	-1089.681396484375	-335.6397399902344	1609.406494140625	-941.963562011719	-398.5738525390626	1433.82861328125	-1015.299560546875	-443.6578979492189	1125.708251953125	-998.7467041015627	-250.261703491211	1370.174560546875	-1046.51611328125	-335.5388183593751	1411.219116210938	-1184.062255859375	-262.7727050781251	1340.173461914063	-1323.684204101563	-234.7750396728516	1381.645874023438	-1321.30126953125	-201.8934478759766	1347.019897460938	-1357.162719726563	-144.2071685791016	1366.641235351563	-1383.189331054688	-110.648666381836	1306.433471679688	-1340.818481445313	128.5288696289063	1375.314575195313	-1411.078002929688	98.45881652832034	1389.105224609375	-1484.134765625	197.6965026855469	1401.564208984375	-1446.213134765625	-285.9800720214844	1422.757568359375	-896.3897705078127	-153.447738647461	1360.312133789063	-789.6307373046877	-127.2155532836914	1395.777221679688	-813.1524047851565	-83.26958465576173	1360.64794921875	-790.8928222656252	-16.70584869384766	1376.081665039063	-800.4019775390627	-8.261511802673342	1307.756591796875	-845.7348632812502	238.6247863769532	1373.243041992188	-875.4321289062502	240.7829895019532	1394.583374023438	-806.8184204101565	321.8103637695313	1395.376586914063	-873.7920532226565	-288.2009887695313	894.4982910156252	-1095.324096679688	-277.3033142089844	923.0388183593752	-867.554382324219	-466.0467224121095	982.2579345703127	-984.7535400390627	-473.2914123535157	949.8308715820315	-1010.828979492188	-469.3820190429689	953.717468261719	-952.6846923828127	-318.6418762207032	740.2152709960939	-1168.047119140625	-250.4124908447266	691.2985839843751	-1172.534301757813	-208.9878234863282	715.5579833984376	-1162.530517578125	-248.0375518798829	630.0610351562501	-1173.019897460938	-186.9198303222657	474.8200683593751	-1141.338989257813	-144.3998107910157	480.4687500000001	-1022.341979980469	-194.9396514892579	308.6841430664063	-1026.867309570313	-219.1826629638672	258.7360229492188	-1094.479125976563	-204.0465545654297	255.6661071777344	-1049.227783203125	-246.0232849121094	195.0229492187501	-1012.860778808594	-328.0651550292969	116.121208190918	-1051.813598632813	-303.8465270996094	137.6568298339844	-965.2080078125002	-191.0121154785157	61.69128036499025	-978.046081542969	-189.4581146240235	58.59615325927736	-1022.453918457031	-237.2713928222657	44.65359115600587	-1068.5341796875	-268.4273071289063	764.5088500976564	-770.0982666015627	-202.2442321777344	754.1959838867189	-776.9267578125002	-182.7324676513672	776.7478027343752	-790.7595825195315	-164.0865478515625	679.9002075195314	-783.5505981445315	-56.93502426147462	582.5385742187501	-810.384704589844	-47.67420196533204	581.6478881835939	-934.835144042969	44.24138641357423	498.5498352050782	-837.198425292969	46.5872917175293	399.355438232422	-788.6569824218752	79.05795288085939	422.0825805664064	-812.7696533203127	108.6026916503907	385.8414611816407	-848.1392822265627	144.6944580078125	230.5728607177735	-810.2968750000002	147.0114898681641	246.5454101562501	-900.642272949219	104.4466781616211	168.9602661132813	-853.0554199218752	296.8650817871094	241.4572143554688	-903.701843261719	302.2693786621094	253.4554443359376	-859.8205566406252	278.4822692871094	216.8063049316407	-796.7957763671877	
4	0.015	-176.4990539550782	1635.457397460938	-1059.719970703125	-355.0972290039063	1608.096557617188	-1089.8505859375	-335.2452697753907	1609.103881835938	-942.1115722656252	-398.462371826172	1433.589477539063	-1015.346008300781	-443.7574768066407	1125.315673828125	-998.7757568359377	-250.0157928466797	1369.558715820313	-1046.603637695313	-335.2087707519532	1410.693481445313	-1184.15625	-262.4568176269532	1339.525024414063	-1323.700073242188	-234.5515594482422	1380.846313476563	-1321.382568359375	-201.6389465332032	1346.138793945313	-1357.261962890625	-143.8996276855469	1365.705200195313	-1383.23828125	-110.576286315918	1305.635498046875	-1340.688720703125	128.6659240722657	1374.253540039063	-1411.172241210938	98.6921310424805	1387.8095703125	-1484.248413085938	196.6842193603516	1399.728759765625	-1445.489501953125	-285.7430419921876	1422.219482421875	-896.480407714844	-153.2239379882813	1359.351196289063	-789.8242797851565	-126.9906463623047	1394.882446289063	-812.993591308594	-83.00604248046876	1359.97802734375	-791.031677246094	-16.47987365722657	1375.192749023438	-800.5566406250002	-8.107243537902834	1306.7861328125	-846.1340942382815	238.9030914306641	1371.796508789063	-875.6662597656252	241.0919952392579	1393.061401367188	-807.1942138671877	322.3160705566407	1394.01171875	-874.7037353515627	-288.4995422363282	894.2644653320315	-1095.393676757813	-277.6127014160157	922.5142822265627	-867.5015869140627	-466.4125366210939	981.8836669921877	-984.6694946289065	-468.4976806640626	947.8740844726565	-1011.533264160156	-469.6853027343751	953.3953857421877	-952.570495605469	-318.8032836914063	739.9998779296876	-1167.93310546875	-250.5909881591797	691.1624755859376	-1172.35205078125	-209.0985260009766	715.5020751953126	-1162.370239257813	-247.9789276123047	629.9994506835939	-1173.018920898438	-186.8117828369141	474.7069702148439	-1141.33935546875	-144.2325439453125	480.3833312988282	-1022.323669433594	-194.8178710937501	308.6020507812501	-1026.95849609375	-219.3948516845704	258.6567687988282	-1094.575927734375	-203.9950256347657	255.5555114746094	-1049.357299804688	-245.9759979248047	195.0056762695313	-1012.8984375	-327.9914245605469	116.0773391723633	-1051.8642578125	-303.7763061523438	137.6857147216797	-965.263854980469	-191.0300750732422	61.68781661987306	-978.0581054687502	-189.471435546875	58.59062576293947	-1022.488952636719	-237.2764282226563	44.61928939819337	-1068.562866210938	-268.6759033203126	764.0723876953126	-770.1132812500002	-202.8092651367188	753.7236328125001	-776.7792968750002	-183.293212890625	776.1729736328127	-790.5615234375002	-164.6284637451172	679.5216064453126	-783.3247070312502	-57.50984191894533	582.0421752929689	-810.125915527344	-48.41334533691408	580.8765258789064	-934.5657958984377	43.78678512573243	497.9825134277345	-837.0709228515627	45.93825912475587	398.7002258300782	-788.1757812500002	78.52351379394533	421.2857971191407	-812.4497680664065	108.1829681396485	385.0000305175782	-847.6976318359377	143.6190185546875	229.8860473632813	-809.9016723632815	146.3123168945313	245.8174285888672	-900.2957153320315	103.4518432617188	168.3781433105469	-852.2400512695315	296.2609558105469	240.627670288086	-903.0693969726565	301.2325439453126	252.8630828857422	-859.2888793945315	277.9075012207032	216.0587921142579	-796.1216430664065	
